<svg width="18" height="18" viewBox="0 0 18 18" fill="none" xmlns="http://www.w3.org/2000/svg">
<path d="M11.9769 12.7675L13.5169 11.2275C13.7243 11.0227 13.9867 10.8825 14.2723 10.8239C14.5579 10.7653 14.8543 10.7909 15.1256 10.8975L17.0025 11.6469C17.2767 11.7582 17.5118 11.9482 17.6782 12.1928C17.8446 12.4375 17.9348 12.726 17.9375 13.0219V16.4594C17.9359 16.6607 17.8936 16.8596 17.8131 17.0441C17.7326 17.2286 17.6156 17.3949 17.4692 17.533C17.3227 17.6711 17.1499 17.7781 16.961 17.8476C16.7721 17.9172 16.571 17.9477 16.37 17.9375C3.21813 17.1194 0.564376 5.9819 0.0625005 1.7194C0.0392031 1.51008 0.0604893 1.2982 0.124959 1.0977C0.189428 0.897202 0.295619 0.712623 0.436547 0.556109C0.577474 0.399595 0.749944 0.274694 0.942609 0.189622C1.13527 0.10455 1.34377 0.0612356 1.55438 0.0625281H4.875C5.17132 0.0634052 5.4606 0.152912 5.70563 0.319536C5.95067 0.48616 6.14025 0.722281 6.25 0.997528L6.99938 2.8744C7.10955 3.14464 7.13766 3.44134 7.08019 3.72746C7.02272 4.01358 6.88223 4.27642 6.67625 4.48315L5.13625 6.02315C5.13625 6.02315 6.02313 12.025 11.9769 12.7675Z" fill="white"/>
</svg>
